<svg xmlns="http://www.w3.org/2000/svg" width="32" height="32" viewBox="0 0 32 32">
  <g id="Group_6171" data-name="Group 6171" transform="translate(4301 -18416)">
    <path id="instagram" d="M16,32A16,16,0,0,1,4.687,4.687,16,16,0,1,1,27.314,27.314,15.9,15.9,0,0,1,16,32ZM16,2.667A13.333,13.333,0,1,0,29.334,16,13.349,13.349,0,0,0,16,2.667Z" transform="translate(-4301 18416)" fill="#f8f4ee"/>
    <g id="Group_6166" data-name="Group 6166" transform="translate(-4292.222 18424.098)">
      <path id="Path_202" data-name="Path 202" d="M228.01,28.389V19.074h-3.1v9.316h3.1ZM226.462,17.8a1.725,1.725,0,1,0-.02,0h.02Zm3.261,10.587h3.1v-5.2a2.122,2.122,0,0,1,.1-.755,1.7,1.7,0,0,1,1.589-1.133c1.12,0,1.568.854,1.568,2.107v4.983h3.1V23.048c0-2.861-1.527-4.193-3.565-4.193a3.085,3.085,0,0,0-2.811,1.569h.021V19.074h-3.1c.04.874,0,9.316,0,9.316Z" transform="translate(-224.731 -14.583)" fill="#f8f4ee"/>
    </g>
  </g>
</svg>
