<svg xmlns="http://www.w3.org/2000/svg" width="51.213" height="60" viewBox="0 0 51.213 60">
  <g id="Group_1216" data-name="Group 1216" transform="translate(18226 -19733.766)">
    <path id="Path_5" data-name="Path 5" d="M1097.232,216.3a22.64,22.64,0,1,0,0,32.017l-2.564-2.564a19.014,19.014,0,1,1,0-26.889Z" transform="translate(-19277.223 19531.457)" fill="#f8f4ee"/>
    <path id="Path_6" data-name="Path 6" d="M1084.752,193.411a30,30,0,1,0,0,42.426l-2.564-2.564a26.374,26.374,0,1,1,0-37.3Z" transform="translate(-19259.539 19549.143)" fill="#f8f4ee"/>
    <path id="Path_7" data-name="Path 7" d="M1107.013,241.533l2.564-2.564a15.339,15.339,0,1,0,0,21.693l-2.564-2.564a11.713,11.713,0,1,1,0-16.565Z" transform="translate(-19294.73 19513.949)" fill="#f8f4ee"/>
  </g>
</svg>
